<?xml version="1.0" standalone="no"?>
<svg viewBox="0 0 200 200" xmlns="http://www.w3.org/2000/svg">
  <path fill="#378B29" d="M39.5,-66.8C52.9,-60.6,66.9,-53.6,74.2,-42.3C81.6,-31.1,82.3,-15.5,80,-1.3C77.7,12.9,72.2,25.7,65.7,38.4C59.2,51.1,51.5,63.6,40.4,70.6C29.3,77.7,14.6,79.4,-0.4,80.1C-15.5,80.8,-30.9,80.6,-42.5,73.8C-54,66.9,-61.7,53.5,-67.6,40.1C-73.5,26.7,-77.8,13.3,-77.7,0C-77.7,-13.3,-73.5,-26.6,-66.7,-38.6C-60,-50.6,-50.7,-61.3,-39.2,-68.6C-27.7,-75.9,-13.8,-79.9,-0.4,-79.2C13,-78.5,26,-73,39.5,-66.8Z" transform="translate(100 100)" />
</svg>
